<svg width="108" height="24" viewBox="0 0 108 24" fill="none" xmlns="http://www.w3.org/2000/svg">
<path d="M2.91113 1.67188H6.63184L12.1104 17.3311L17.5889 1.67188H21.3096L13.6045 23H10.6162L2.91113 1.67188ZM0.904297 1.67188H4.61035L5.28418 16.9355V23H0.904297V1.67188ZM19.6104 1.67188H23.3311V23H18.9365V16.9355L19.6104 1.67188ZM34.2148 23.293C32.9844 23.293 31.8809 23.0977 30.9043 22.707C29.9277 22.3066 29.0977 21.7549 28.4141 21.0518C27.7402 20.3486 27.2227 19.5332 26.8613 18.6055C26.5 17.668 26.3193 16.6719 26.3193 15.6172V15.0312C26.3193 13.8301 26.4902 12.7314 26.832 11.7354C27.1738 10.7393 27.6621 9.875 28.2969 9.14258C28.9414 8.41016 29.7227 7.84863 30.6406 7.45801C31.5586 7.05762 32.5938 6.85742 33.7461 6.85742C34.8691 6.85742 35.8652 7.04297 36.7344 7.41406C37.6035 7.78516 38.3311 8.3125 38.917 8.99609C39.5127 9.67969 39.9619 10.5 40.2646 11.457C40.5674 12.4043 40.7188 13.459 40.7188 14.6211V16.3789H28.1211V13.5664H36.5732V13.2441C36.5732 12.6582 36.4658 12.1357 36.251 11.6768C36.0459 11.208 35.7334 10.8369 35.3135 10.5635C34.8936 10.29 34.3564 10.1533 33.7021 10.1533C33.1455 10.1533 32.667 10.2754 32.2666 10.5195C31.8662 10.7637 31.5391 11.1055 31.2852 11.5449C31.041 11.9844 30.8555 12.502 30.7285 13.0977C30.6113 13.6836 30.5527 14.3281 30.5527 15.0312V15.6172C30.5527 16.252 30.6406 16.8379 30.8164 17.375C31.002 17.9121 31.2607 18.376 31.5928 18.7666C31.9346 19.1572 32.3447 19.46 32.8232 19.6748C33.3115 19.8896 33.8633 19.9971 34.4785 19.9971C35.2402 19.9971 35.9482 19.8506 36.6025 19.5576C37.2666 19.2549 37.8379 18.8008 38.3164 18.1953L40.3672 20.4219C40.0352 20.9004 39.5811 21.3594 39.0049 21.7988C38.4385 22.2383 37.7549 22.5996 36.9541 22.8828C36.1533 23.1562 35.2402 23.293 34.2148 23.293ZM48.4531 21.3154L53.5361 7.15039H55.3379L49.4053 23H48.1309L48.4531 21.3154ZM43.8535 7.15039L48.9951 21.3594L49.2734 23H47.9844L42.0371 7.15039H43.8535ZM57.0225 15.3242V14.8408C57.0225 13.6885 57.1885 12.624 57.5205 11.6475C57.8525 10.6709 58.3262 9.82617 58.9414 9.11328C59.5664 8.40039 60.3135 7.84863 61.1826 7.45801C62.0518 7.05762 63.0186 6.85742 64.083 6.85742C65.1572 6.85742 66.1289 7.05762 66.998 7.45801C67.8672 7.84863 68.6143 8.40039 69.2393 9.11328C69.8643 9.82617 70.3428 10.6709 70.6748 11.6475C71.0068 12.624 71.1729 13.6885 71.1729 14.8408V15.3242C71.1729 16.4766 71.0068 17.541 70.6748 18.5176C70.3428 19.4844 69.8643 20.3242 69.2393 21.0371C68.624 21.75 67.8818 22.3066 67.0127 22.707C66.1436 23.0977 65.1768 23.293 64.1123 23.293C63.0381 23.293 62.0664 23.0977 61.1973 22.707C60.3281 22.3066 59.5811 21.75 58.9561 21.0371C58.3311 20.3242 57.8525 19.4844 57.5205 18.5176C57.1885 17.541 57.0225 16.4766 57.0225 15.3242ZM58.7656 14.8408V15.3242C58.7656 16.1934 58.8828 17.0186 59.1172 17.7998C59.3516 18.5713 59.6934 19.2598 60.1426 19.8652C60.5918 20.4609 61.1484 20.9297 61.8125 21.2715C62.4766 21.6133 63.2432 21.7842 64.1123 21.7842C64.9717 21.7842 65.7285 21.6133 66.3828 21.2715C67.0469 20.9297 67.6035 20.4609 68.0527 19.8652C68.502 19.2598 68.8389 18.5713 69.0635 17.7998C69.2979 17.0186 69.415 16.1934 69.415 15.3242V14.8408C69.415 13.9814 69.2979 13.166 69.0635 12.3945C68.8389 11.623 68.4971 10.9346 68.0381 10.3291C67.5889 9.72363 67.0322 9.24512 66.3682 8.89355C65.7041 8.54199 64.9424 8.36621 64.083 8.36621C63.2236 8.36621 62.4619 8.54199 61.7979 8.89355C61.1436 9.24512 60.5869 9.72363 60.1279 10.3291C59.6787 10.9346 59.3369 11.623 59.1025 12.3945C58.8779 13.166 58.7656 13.9814 58.7656 14.8408ZM76.7539 0.5V23H75.0107V0.5H76.7539ZM86.2168 21.3154L91.2998 7.15039H93.1016L87.1689 23H85.8945L86.2168 21.3154ZM81.6172 7.15039L86.7588 21.3594L87.0371 23H85.748L79.8008 7.15039H81.6172ZM101.905 23.293C100.87 23.293 99.918 23.1025 99.0488 22.7217C98.1895 22.3408 97.4375 21.8037 96.793 21.1104C96.1582 20.417 95.665 19.5967 95.3135 18.6494C94.9717 17.6924 94.8008 16.6475 94.8008 15.5146V14.8848C94.8008 13.6641 94.9814 12.5605 95.3428 11.5742C95.7041 10.5879 96.2021 9.74316 96.8369 9.04004C97.4717 8.33691 98.1943 7.7998 99.0049 7.42871C99.8252 7.04785 100.685 6.85742 101.583 6.85742C102.589 6.85742 103.482 7.03809 104.264 7.39941C105.045 7.75098 105.699 8.25391 106.227 8.9082C106.764 9.55273 107.169 10.3193 107.442 11.208C107.716 12.0869 107.853 13.0586 107.853 14.123V15.1924H95.8555V13.6982H106.109V13.4932C106.09 12.6045 105.909 11.7744 105.567 11.0029C105.235 10.2217 104.737 9.58691 104.073 9.09863C103.409 8.61035 102.579 8.36621 101.583 8.36621C100.841 8.36621 100.157 8.52246 99.5322 8.83496C98.917 9.14746 98.3848 9.59668 97.9355 10.1826C97.4961 10.7588 97.1543 11.4473 96.9102 12.248C96.6758 13.0391 96.5586 13.918 96.5586 14.8848V15.5146C96.5586 16.3936 96.6855 17.2139 96.9395 17.9756C97.2031 18.7275 97.5742 19.3916 98.0527 19.9678C98.541 20.5439 99.1172 20.9932 99.7812 21.3154C100.445 21.6377 101.178 21.7988 101.979 21.7988C102.916 21.7988 103.746 21.6279 104.469 21.2861C105.191 20.9346 105.841 20.3828 106.417 19.6309L107.516 20.4805C107.174 20.9883 106.744 21.457 106.227 21.8867C105.719 22.3164 105.108 22.6582 104.396 22.9121C103.683 23.166 102.853 23.293 101.905 23.293Z" fill="white"/>
</svg>
